<!DOCTYPE svg PUBLIC "-//W3C//DTD SVG 20010904//EN" "http://www.w3.org/TR/2001/REC-SVG-20010904/DTD/svg10.dtd">
<svg version="1.0" xmlns="http://www.w3.org/2000/svg" width="490px" height="521px" viewBox="0 0 4900 5210" preserveAspectRatio="xMidYMid meet">
<g id="layer1" fill="#983d39" stroke="none">
 <path d="M1757 5143 c-4 -3 -7 -10 -7 -15 0 -4 196 -8 435 -8 380 0 435 2 435 15 0 13 -54 15 -428 15 -236 0 -432 -3 -435 -7z"/>
 <path d="M2640 5125 c0 -8 4 -15 9 -15 5 0 16 -3 25 -6 10 -4 16 -1 16 9 0 14 -20 27 -41 27 -5 0 -9 -7 -9 -15z"/>
 <path d="M3170 4930 c0 -5 7 -10 15 -10 8 0 15 5 15 10 0 6 -7 10 -15 10 -8 0 -15 -4 -15 -10z"/>
 <path d="M3320 4855 c0 -8 5 -15 10 -15 6 0 10 7 10 15 0 8 -4 15 -10 15 -5 0 -10 -7 -10 -15z"/>
 <path d="M3450 4770 c0 -9 31 -30 44 -30 13 0 5 28 -10 34 -23 9 -34 7 -34 -4z"/>
 <path d="M1420 4520 c-8 -5 -11 -12 -8 -16 10 -9 38 3 38 16 0 12 -10 13 -30 0z"/>
 <path d="M3057 4513 c-12 -11 -8 -23 8 -23 8 0 15 7 15 15 0 16 -12 20 -23 8z"/>
 <path d="M3955 4311 c-8 -15 3 -31 21 -31 9 0 14 7 12 17 -4 20 -24 28 -33 14z"/>
 <path d="M3352 4289 c2 -7 10 -15 17 -17 8 -3 12 1 9 9 -2 7 -10 15 -17 17 -8 3 -12 -1 -9 -9z"/>
 <path d="M3690 3860 c0 -5 7 -10 15 -10 8 0 15 5 15 10 0 6 -7 10 -15 10 -8 0 -15 -4 -15 -10z"/>
 <path d="M1770 3650 c0 -5 7 -10 15 -10 8 0 15 5 15 10 0 6 -7 10 -15 10 -8 0 -15 -4 -15 -10z"/>
 <path d="M88 3351 c-6 -65 1 -111 18 -111 11 0 14 18 14 80 0 61 -3 80 -14 80 -9 0 -15 -16 -18 -49z"/>
 <path d="M4394 3355 c3 -9 6 -28 6 -41 0 -15 6 -24 16 -24 24 0 15 74 -10 78 -14 3 -17 0 -12 -13z"/>
 <path d="M87 3213 c-10 -9 -8 -71 2 -77 5 -3 5 -26 0 -52 -10 -52 -7 -59 15 -51 20 8 22 187 2 187 -7 0 -16 -3 -19 -7z"/>
 <path d="M1677 3023 c-12 -11 -8 -23 8 -23 8 0 15 7 15 15 0 16 -12 20 -23 8z"/>
 <path d="M91 2855 c-2 -175 4 -225 26 -225 11 0 13 7 9 23 -3 12 -6 98 -6 190 -1 131 -5 167 -15 167 -10 0 -13 -34 -14 -155z"/>
 <path d="M2420 2850 c0 -5 7 -10 15 -10 8 0 15 5 15 10 0 6 -7 10 -15 10 -8 0 -15 -4 -15 -10z"/>
 <path d="M1390 2744 c0 -17 22 -14 28 4 2 7 -3 12 -12 12 -9 0 -16 -7 -16 -16z"/>
 <path d="M2522 2703 c5 -25 28 -28 28 -4 0 12 -6 21 -16 21 -9 0 -14 -7 -12 -17z"/>
 <path d="M2085 1409 c-4 -6 -4 -13 -1 -16 8 -8 36 5 36 17 0 13 -27 13 -35 -1z"/>
 <path d="M3480 1320 c-8 -5 -12 -12 -8 -15 9 -9 48 4 48 16 0 12 -21 11 -40 -1z"/>
 <path d="M1090 1200 c0 -5 7 -10 15 -10 8 0 15 5 15 10 0 6 -7 10 -15 10 -8 0 -15 -4 -15 -10z"/>
 <path d="M1930 1090 c0 -5 7 -10 15 -10 8 0 15 5 15 10 0 6 -7 10 -15 10 -8 0 -15 -4 -15 -10z"/>
 <path d="M1940 130 c0 -5 7 -10 15 -10 8 0 15 5 15 10 0 6 -7 10 -15 10 -8 0 -15 -4 -15 -10z"/>
 <path d="M1503 92 c-216 -2 -253 -5 -253 -17 0 -13 38 -15 266 -15 242 0 265 1 262 17 -4 20 24 19 -275 15z"/>
 <path d="M1980 75 c0 -13 31 -15 220 -15 189 0 220 2 220 15 0 13 -31 15 -220 15 -189 0 -220 -2 -220 -15z"/>
 <path d="M2612 78 c4 -10 62 -14 236 -16 202 -2 232 0 232 13 0 13 -32 15 -236 15 -184 0 -235 -3 -232 -12z"/>
 </g>
<g id="layer2" fill="#b4484a" stroke="none">
 <path d="M2620 5135 c0 -8 5 -15 10 -15 6 0 10 7 10 15 0 8 -4 15 -10 15 -5 0 -10 -7 -10 -15z"/>
 <path d="M1595 5101 c-196 -61 -325 -118 -325 -141 0 -15 22 -12 65 10 22 12 76 33 120 47 44 14 85 29 90 33 6 4 33 13 60 19 73 15 148 45 153 59 6 20 -36 13 -163 -27z"/>
 <path d="M2682 5118 c6 -18 48 -38 80 -38 15 0 30 -4 33 -10 3 -5 17 -10 30 -10 14 0 50 -11 81 -25 31 -14 75 -30 97 -36 72 -19 307 -133 365 -176 24 -18 50 -33 58 -33 8 0 17 -7 20 -15 8 -19 34 -20 34 -1 0 18 -127 99 -258 165 -146 73 -291 129 -442 171 -87 23 -103 25 -98 8z"/>
 <path d="M1135 4905 c-112 -64 -175 -108 -175 -122 0 -7 2 -13 5 -13 5 0 96 50 110 60 19 15 120 71 148 83 30 13 37 37 9 37 -10 0 -53 -20 -97 -45z"/>
 <path d="M868 4724 c-32 -25 -58 -52 -58 -60 0 -20 13 -17 46 11 16 13 36 31 45 38 8 7 23 16 32 20 20 7 23 37 5 37 -7 0 -39 -21 -70 -46z"/>
 <path d="M3490 4756 c0 -16 65 -68 74 -59 13 13 5 29 -27 51 -39 26 -47 27 -47 8z"/>
 <path d="M2197 4753 c-23 -22 -1 -31 101 -38 137 -9 153 -11 237 -30 39 -9 79 -18 90 -19 11 -2 27 -6 35 -9 8 -3 58 -19 110 -37 52 -18 135 -52 184 -76 49 -24 97 -44 107 -44 11 0 19 -6 19 -12 0 -15 129 -102 138 -94 11 11 -18 57 -42 66 -13 5 -40 23 -59 40 -19 17 -39 30 -44 29 -11 -3 -161 70 -168 81 -4 6 -13 10 -22 10 -8 0 -29 6 -46 13 -72 30 -134 50 -164 52 -18 1 -38 6 -45 12 -17 13 -156 38 -165 30 -3 -4 -11 -3 -18 3 -6 5 -60 14 -121 20 -129 12 -119 12 -127 3z"/>
 <path d="M1990 4735 c-119 -24 -154 -33 -280 -78 -132 -47 -182 -72 -295 -146 -38 -25 -78 -50 -89 -56 -10 -5 -24 -18 -30 -27 -22 -36 7 -29 79 21 88 61 287 159 399 195 88 29 258 66 304 66 50 0 92 12 92 26 0 18 -87 17 -180 -1z"/>
 <path d="M3570 4691 c0 -12 74 -71 89 -71 20 0 11 20 -21 50 -32 28 -68 40 -68 21z"/>
 <path d="M772 4638 c-17 -17 -15 -33 4 -49 15 -12 16 -11 10 8 -4 12 -2 24 4 28 12 7 14 25 2 25 -4 0 -13 -5 -20 -12z"/>
 <path d="M712 4588 c-16 -16 -15 -38 2 -38 18 0 39 27 31 40 -8 13 -18 13 -33 -2z"/>
 <path d="M3700 4587 c0 -7 44 -56 98 -108 53 -53 102 -107 108 -120 12 -25 59 -57 70 -46 9 8 -46 77 -61 77 -7 0 -15 11 -19 23 -6 25 -168 187 -186 187 -5 0 -10 -6 -10 -13z"/>
 <path d="M654 4525 c-9 -14 -14 -28 -11 -31 11 -11 47 17 47 36 0 27 -16 25 -36 -5z"/>
 <path d="M592 4458 c-20 -20 -14 -28 19 -28 24 0 30 3 25 16 -3 9 -6 18 -6 20 0 9 -27 3 -38 -8z"/>
 <path d="M550 4405 c-7 -9 -10 -19 -6 -22 8 -9 38 9 44 25 5 17 -23 15 -38 -3z"/>
 <path d="M1242 4394 c-21 -14 -31 -44 -14 -44 16 0 52 32 52 46 0 18 -10 18 -38 -2z"/>
 <path d="M3230 4387 c0 -18 28 -42 37 -33 9 8 -9 38 -25 44 -7 2 -12 -3 -12 -11z"/>
 <path d="M460 4278 c-33 -50 -60 -97 -60 -104 0 -6 -6 -16 -13 -22 -21 -18 -112 -207 -155 -322 -52 -141 -105 -311 -98 -317 15 -15 34 11 45 61 7 31 16 58 21 61 4 3 11 20 14 40 4 19 18 59 31 90 14 31 25 62 25 70 0 8 11 38 23 67 13 29 30 69 37 88 8 19 29 59 47 88 18 29 33 58 33 65 1 6 14 28 30 47 17 19 30 40 30 47 0 7 4 13 10 13 5 0 18 20 28 44 11 24 25 47 31 50 16 10 14 26 -4 26 -8 0 -41 -41 -75 -92z"/>
 <path d="M3284 4355 c-7 -18 12 -45 32 -45 18 0 18 28 0 46 -18 18 -25 18 -32 -1z"/>
 <path d="M1136 4305 c-26 -25 -51 -45 -56 -45 -6 0 -10 -5 -10 -10 0 -6 -18 -30 -40 -54 -22 -24 -40 -45 -40 -48 0 -3 -16 -22 -36 -43 -52 -55 -164 -226 -164 -250 0 -3 6 -5 14 -5 8 0 33 30 57 68 23 37 62 93 85 125 24 31 44 64 44 72 0 8 6 15 13 15 15 0 97 92 97 108 0 5 9 12 20 15 11 3 20 12 20 21 0 9 16 22 35 30 19 8 35 22 35 30 0 28 -27 17 -74 -29z"/>
 <path d="M3350 4287 c0 -19 93 -107 113 -107 27 0 21 11 -37 68 -53 52 -76 64 -76 39z"/>
 <path d="M3980 4272 c0 -9 9 -23 20 -30 11 -7 20 -16 20 -22 0 -14 81 -130 91 -130 20 0 6 36 -47 116 -53 80 -84 105 -84 66z"/>
 <path d="M3490 4136 c0 -2 30 -44 66 -93 36 -48 68 -94 71 -100 7 -19 33 -16 33 3 0 9 -10 29 -22 45 -78 101 -121 149 -133 149 -8 0 -15 -2 -15 -4z"/>
 <path d="M4120 4060 c0 -10 6 -23 13 -27 27 -18 101 -176 151 -325 3 -10 15 -18 26 -18 11 0 20 1 20 3 0 23 -112 266 -157 341 -29 48 -53 60 -53 26z"/>
 <path d="M1249 3954 c-37 -42 -118 -199 -144 -278 -28 -87 -30 -121 -5 -121 11 0 17 15 21 51 4 31 27 93 58 156 28 58 51 110 51 114 0 5 11 21 24 36 l24 26 197 -9 c109 -4 200 -10 202 -12 2 -2 -7 -35 -20 -73 -33 -93 -60 -201 -62 -247 -1 -21 -5 -40 -9 -44 -3 -3 -6 -17 -6 -30 0 -27 29 -32 32 -5 3 36 5 47 11 62 3 8 13 47 22 85 9 39 30 114 46 169 26 82 28 101 17 112 -9 9 -71 15 -228 20 -203 6 -216 6 -231 -12z"/>
 <path d="M1887 3932 c-21 -23 -107 -207 -140 -298 -34 -94 -50 -216 -36 -269 6 -22 14 -56 18 -75 21 -96 171 -400 198 -400 18 0 16 9 -7 48 -11 18 -20 38 -20 44 0 6 -8 20 -17 31 -10 10 -18 24 -18 30 0 7 -22 56 -48 109 -26 54 -47 106 -47 117 0 10 -6 23 -13 29 -19 16 -14 214 7 272 8 25 16 52 16 61 0 9 7 22 15 29 8 7 15 21 15 31 0 11 4 27 10 37 5 9 28 57 50 106 l42 88 86 -6 c48 -3 140 -9 205 -12 65 -4 116 -9 115 -13 -2 -3 -10 -19 -17 -36 -7 -16 -19 -43 -27 -58 -7 -16 -32 -83 -54 -149 -31 -95 -40 -136 -40 -191 0 -74 19 -187 31 -187 4 0 10 -13 14 -30 9 -42 73 -170 84 -170 22 0 19 21 -13 86 -61 124 -79 202 -74 317 6 112 27 188 101 351 35 80 38 91 24 101 -16 11 -218 25 -373 25 -56 0 -74 -4 -87 -18z"/>
 <path d="M2495 3930 c-14 -15 -16 -23 -7 -32 8 -8 15 -8 25 0 8 7 74 13 178 14 147 3 164 5 167 21 3 16 -10 17 -171 17 -162 0 -175 -1 -192 -20z"/>
 <path d="M2880 3936 c0 -10 13 -16 39 -18 l39 -3 -16 -32 c-10 -17 -29 -52 -43 -76 -14 -25 -29 -57 -33 -72 -4 -15 -18 -50 -32 -78 -34 -69 -46 -246 -20 -297 9 -18 16 -41 16 -52 0 -10 9 -27 20 -38 11 -11 20 -26 20 -33 0 -7 7 -23 17 -36 15 -22 35 -58 85 -154 25 -46 34 -52 41 -26 4 14 -15 55 -57 127 -86 148 -105 192 -115 268 -10 68 -3 136 22 220 15 50 108 246 128 271 20 23 -8 43 -62 43 -36 0 -49 -4 -49 -14z"/>
 <path d="M3650 3913 c0 -5 6 -18 14 -29 18 -26 97 -181 112 -219 64 -170 106 -331 120 -455 10 -102 5 -349 -10 -440 -36 -225 -83 -336 -270 -647 -64 -106 -116 -195 -116 -197 0 -3 -14 -26 -31 -51 -17 -25 -28 -49 -25 -53 13 -13 41 16 71 71 17 31 36 62 43 69 6 6 12 16 12 20 0 5 12 27 27 51 75 118 91 145 102 174 7 17 21 39 32 49 10 9 19 23 19 29 0 7 9 24 20 38 11 14 20 31 20 37 0 7 14 32 30 57 17 24 30 54 30 66 0 12 10 42 21 67 43 96 63 239 64 462 0 145 -3 210 -12 219 -6 6 -9 17 -6 25 16 43 -47 278 -112 419 -8 17 -19 41 -25 55 -5 14 -14 32 -19 40 -5 8 -12 22 -15 30 -17 44 -65 115 -79 118 -10 2 -17 0 -17 -5z"/>
 <path d="M2430 3809 c-16 -33 -28 -65 -25 -70 13 -20 34 -7 46 29 6 20 15 42 19 47 4 6 11 20 14 33 5 16 3 22 -8 22 -8 0 -28 -27 -46 -61z"/>
 <path d="M734 3753 c-35 -79 -40 -91 -62 -148 -21 -54 -44 -146 -41 -161 1 -5 -1 -16 -4 -24 -24 -60 -30 -120 -34 -347 -4 -235 4 -374 25 -407 3 -6 5 -21 3 -34 -3 -25 12 -77 39 -137 10 -22 25 -62 34 -89 28 -82 99 -196 122 -196 20 0 18 5 -21 69 -59 98 -135 295 -150 391 -23 144 -27 539 -7 645 7 33 13 74 16 90 2 17 6 37 9 45 3 8 16 49 28 90 12 41 39 115 60 164 21 49 36 93 33 98 -12 18 -25 5 -50 -49z"/>
 <path d="M2371 3678 c-25 -59 -51 -167 -51 -212 0 -30 3 -37 18 -34 13 3 19 18 24 68 8 73 22 131 44 173 18 37 18 47 -1 47 -9 0 -24 -19 -34 -42z"/>
 <path d="M4314 3643 c2 -15 8 -39 14 -53 6 -14 13 -41 17 -61 3 -21 12 -42 19 -48 7 -6 11 -22 9 -35 -6 -29 12 -66 32 -66 19 0 19 12 1 55 -8 18 -13 35 -11 37 3 2 -9 46 -24 98 -19 64 -34 96 -45 98 -12 3 -15 -3 -12 -25z"/>
 <path d="M1077 3487 c-21 -153 92 -446 270 -699 18 -26 33 -50 33 -52 0 -3 19 -33 43 -68 24 -35 67 -102 96 -150 29 -49 59 -88 67 -88 8 0 14 2 14 5 0 7 -31 63 -63 112 -15 24 -27 45 -27 49 0 9 -92 138 -102 142 -4 2 -8 12 -8 22 0 10 -4 21 -9 24 -15 10 -100 140 -116 181 -10 22 -23 47 -30 55 -11 13 -31 56 -90 195 -21 49 -45 183 -45 251 0 47 -4 64 -14 64 -8 0 -16 -16 -19 -43z"/>
 <path d="M116 3482 c-11 -18 -18 -82 -8 -82 14 0 42 46 42 70 0 19 -24 28 -34 12z"/>
 <path d="M1574 3466 c-3 -7 -4 -33 -2 -57 2 -32 8 -45 21 -47 15 -3 17 5 17 57 0 48 -3 61 -15 61 -9 0 -18 -6 -21 -14z"/>
 <path d="M2320 3381 c0 -64 113 -305 244 -521 113 -186 109 -180 123 -180 7 0 13 -9 13 -19 0 -29 33 -82 49 -79 23 5 23 22 1 46 -11 11 -20 25 -20 29 0 5 -13 24 -30 43 -16 19 -29 40 -30 45 0 6 -23 45 -50 88 -28 43 -50 80 -50 83 0 2 -12 23 -27 47 -15 23 -44 78 -66 122 -22 44 -45 87 -52 95 -7 8 -18 33 -24 55 -7 22 -17 49 -22 60 -5 11 -13 38 -17 60 -9 43 -42 64 -42 26z"/>
 <path d="M1580 3301 c0 -11 5 -23 10 -26 6 -4 7 -11 4 -17 -4 -5 -1 -29 6 -52 28 -94 63 -192 76 -211 8 -11 14 -27 14 -36 0 -9 9 -24 20 -34 11 -10 20 -24 20 -31 0 -7 3 -14 8 -16 4 -1 17 -23 29 -48 31 -61 60 -111 73 -124 5 -5 10 -17 10 -26 0 -17 46 -48 56 -37 3 3 -23 54 -58 114 -99 165 -134 231 -167 318 -18 44 -36 89 -41 100 -9 21 -18 62 -24 105 -5 39 -5 40 -21 40 -8 0 -15 -9 -15 -19z"/>
 <path d="M2320 3047 c0 -20 28 -73 45 -87 8 -7 15 -18 15 -25 0 -7 7 -18 15 -25 8 -7 15 -19 15 -27 0 -8 20 -40 44 -72 55 -71 206 -341 206 -367 0 -6 8 -22 19 -35 10 -13 23 -46 29 -74 6 -27 18 -68 27 -89 13 -31 26 -133 27 -211 0 -5 -7 -52 -15 -104 -9 -52 -14 -98 -11 -102 2 -4 0 -10 -6 -14 -15 -9 -12 -25 5 -25 8 0 15 9 15 19 0 11 4 22 8 25 28 17 49 329 24 359 -6 7 -9 16 -6 19 8 8 -21 102 -60 197 -43 103 -98 202 -200 365 -89 141 -127 204 -153 254 -17 32 -43 44 -43 19z"/>
 <path d="M3020 2985 c0 -9 17 -42 39 -74 21 -32 50 -83 66 -114 15 -32 31 -57 35 -57 4 0 10 -8 13 -17 3 -10 20 -42 36 -71 17 -29 31 -61 31 -71 0 -10 9 -30 20 -43 10 -14 16 -29 12 -32 -4 -4 1 -14 12 -21 10 -8 15 -18 12 -24 -4 -6 -2 -18 3 -28 5 -10 12 -26 15 -35 7 -22 25 -23 32 -3 12 31 -91 252 -219 468 -75 125 -107 162 -107 122z"/>
 <path d="M1935 2870 c-3 -5 4 -25 17 -42 13 -18 31 -50 40 -70 9 -21 24 -38 33 -38 19 0 18 8 -6 45 -10 17 -21 37 -25 45 -21 56 -46 81 -59 60z"/>
 <path d="M2030 2705 c0 -3 30 -57 66 -121 138 -243 202 -427 205 -584 1 -43 -10 -83 -49 -186 -47 -123 -76 -186 -260 -564 -157 -324 -221 -472 -267 -621 l-17 -55 32 -75 c43 -99 155 -318 183 -360 13 -19 26 -42 30 -52 7 -19 37 -24 37 -5 0 6 -27 55 -60 109 -33 53 -60 103 -60 111 0 7 -27 66 -60 131 -33 66 -60 129 -60 140 0 42 59 203 137 377 13 30 28 64 33 75 16 40 73 162 103 220 72 145 98 197 136 278 23 48 41 91 41 96 0 5 6 14 14 20 8 7 17 24 20 39 4 15 20 54 35 87 62 131 74 179 68 268 -7 98 -33 199 -76 291 -17 37 -31 71 -31 75 0 4 -18 41 -40 82 -21 41 -50 94 -62 119 -13 25 -25 47 -28 50 -3 3 -13 17 -23 33 -15 23 -47 38 -47 22z"/>
 <path d="M4388 2674 c-10 -19 -18 -41 -18 -48 0 -7 -9 -42 -20 -77 -11 -35 -26 -82 -32 -104 -7 -22 -23 -61 -35 -87 -13 -27 -23 -54 -23 -62 0 -8 -4 -18 -10 -21 -5 -3 -10 -14 -10 -24 0 -38 -201 -374 -245 -411 -22 -18 -18 -32 7 -28 39 6 214 289 289 469 41 99 84 223 109 317 12 42 24 85 26 95 9 32 -21 17 -38 -19z"/>
 <path d="M117 2643 c-13 -13 -7 -74 18 -170 14 -54 29 -107 34 -118 5 -11 23 -60 41 -110 48 -132 129 -286 223 -425 76 -113 158 -212 178 -217 11 -3 19 -13 19 -23 0 -20 174 -190 194 -190 8 0 16 -9 19 -21 3 -11 19 -25 36 -32 16 -6 32 -19 34 -29 5 -17 33 -35 42 -26 9 9 -8 48 -22 48 -8 0 -26 14 -40 30 -13 17 -31 30 -39 30 -8 0 -14 7 -14 15 0 8 -4 15 -10 15 -5 0 -39 30 -75 67 -49 51 -63 72 -59 87 5 15 2 18 -14 14 -26 -7 -62 25 -62 55 0 15 -10 26 -30 35 -16 8 -30 20 -30 28 0 8 -15 28 -34 45 -19 16 -48 54 -65 84 -17 30 -36 55 -41 55 -6 0 -10 8 -10 19 0 10 -7 24 -15 31 -8 7 -17 27 -21 46 -3 19 -12 34 -20 34 -8 0 -14 4 -14 10 0 10 -69 163 -96 212 -7 14 -14 35 -14 45 0 10 -6 27 -14 38 -7 11 -16 31 -19 45 -3 14 -15 57 -25 95 -11 39 -23 90 -26 115 -7 49 -19 74 -29 63z"/>
 <path d="M1900 2614 c0 -8 11 -30 25 -48 15 -20 23 -40 19 -50 -4 -10 -1 -16 8 -16 8 0 23 -18 33 -40 10 -22 26 -47 36 -56 11 -10 19 -22 19 -28 0 -6 7 -23 14 -38 8 -16 26 -63 41 -105 14 -43 30 -87 35 -98 5 -11 13 -42 18 -70 5 -37 12 -51 26 -53 16 -3 17 1 11 40 -21 125 -86 282 -200 475 -56 95 -85 125 -85 87z"/>
 <path d="M2752 2553 c2 -5 20 -41 41 -82 74 -143 93 -361 62 -703 -5 -54 -64 -185 -183 -406 -44 -81 -99 -185 -122 -232 -23 -47 -47 -96 -55 -110 -28 -54 -92 -234 -100 -286 -21 -121 -25 -162 -19 -184 4 -14 8 -37 10 -53 7 -53 79 -209 138 -297 17 -24 40 -63 51 -85 22 -41 65 -62 65 -31 0 9 -3 16 -7 16 -8 0 -51 62 -99 145 -26 45 -100 207 -119 260 -13 36 -4 207 13 228 5 7 15 35 22 62 8 28 20 61 27 75 7 14 13 35 13 47 0 12 4 24 9 27 4 3 14 26 21 51 7 25 17 48 21 51 5 3 9 14 9 25 0 10 4 19 9 19 5 0 35 53 68 118 87 170 123 235 139 253 8 8 14 19 14 22 0 8 52 122 77 169 7 15 15 43 17 61 2 19 6 39 10 46 4 6 6 24 5 39 -1 15 1 34 4 42 9 25 19 209 11 222 -4 6 -6 41 -5 79 1 37 -2 70 -7 73 -6 3 -8 15 -5 27 7 24 -16 158 -29 175 -4 6 -5 14 -2 17 3 3 -3 16 -15 28 -12 13 -21 28 -21 35 0 18 -40 64 -57 64 -8 0 -13 -3 -11 -7z"/>
 <path d="M1590 2401 c0 -4 15 -41 34 -82 19 -41 39 -94 46 -119 6 -25 16 -62 21 -82 12 -48 39 -52 39 -5 0 17 -6 44 -14 58 -7 14 -16 43 -20 64 -7 35 -15 56 -38 95 -5 8 -15 30 -23 48 -14 29 -45 45 -45 23z"/>
 <path d="M3335 2354 c4 -11 9 -37 12 -59 7 -50 20 -75 38 -75 11 0 13 8 8 33 -15 76 -29 112 -47 115 -15 3 -17 0 -11 -14z"/>
 <path d="M820 2187 c0 -16 79 -127 90 -127 24 0 17 25 -22 79 -41 57 -68 77 -68 48z"/>
 <path d="M3371 2111 c1 -43 -1 -83 -5 -90 -4 -6 -9 -33 -11 -60 -1 -27 -6 -55 -10 -61 -4 -6 -4 -14 -1 -17 3 -3 2 -11 -3 -17 -5 -6 -35 -81 -66 -166 -31 -85 -86 -216 -122 -290 -110 -227 -151 -313 -166 -350 -8 -19 -26 -60 -40 -90 -35 -77 -79 -229 -74 -251 3 -11 1 -21 -3 -24 -30 -19 -17 -206 21 -290 56 -127 117 -244 143 -274 7 -9 16 -24 19 -34 7 -19 34 -33 44 -24 3 4 -19 48 -50 99 -123 208 -160 315 -156 453 2 44 6 87 10 95 4 8 17 51 30 95 30 110 81 229 214 505 138 286 212 469 219 540 1 9 6 21 10 28 4 7 5 16 2 19 -3 3 -1 14 5 24 5 10 12 40 15 66 3 26 7 65 11 86 7 52 -4 107 -23 107 -13 0 -15 -14 -13 -79z"/>
 <path d="M930 2037 c0 -16 7 -28 19 -32 10 -3 24 -19 31 -35 7 -17 18 -30 24 -30 6 0 20 -15 30 -34 10 -19 33 -42 52 -52 19 -10 34 -24 34 -31 0 -7 9 -13 20 -13 11 0 20 5 20 11 0 6 -9 13 -20 16 -11 3 -20 10 -20 15 0 10 -167 201 -181 206 -5 2 -9 -8 -9 -21z"/>
 <path d="M1697 1988 c-5 -78 -26 -137 -103 -292 -24 -49 -44 -95 -44 -102 0 -27 27 -13 40 21 8 20 22 43 32 52 10 9 18 23 18 32 0 9 12 41 27 71 14 30 30 64 34 75 4 11 12 34 19 51 6 17 10 35 9 40 -1 5 1 16 5 25 13 29 3 94 -15 97 -13 2 -17 -10 -22 -70z"/>
 <path d="M2150 1931 c-5 -11 -10 -27 -10 -35 0 -9 -4 -24 -9 -34 -22 -40 -41 -86 -41 -99 0 -15 -50 -113 -105 -208 -19 -33 -38 -67 -42 -75 -9 -21 -56 -84 -65 -88 -5 -2 -8 -12 -8 -22 0 -10 -4 -22 -10 -25 -5 -3 -10 -14 -10 -24 0 -10 -9 -26 -20 -36 -11 -10 -22 -27 -26 -39 -3 -11 -16 -34 -29 -51 -12 -16 -26 -41 -30 -54 -4 -13 -20 -46 -36 -73 -16 -27 -29 -52 -29 -56 0 -4 -10 -27 -22 -52 -11 -25 -24 -52 -28 -60 -4 -9 -11 -36 -14 -60 -4 -25 -11 -54 -16 -65 -12 -30 -33 -192 -25 -204 3 -6 13 -11 21 -11 10 0 14 13 14 48 0 173 120 475 301 757 114 178 223 392 254 500 10 33 20 66 22 73 8 20 -25 14 -37 -7z"/>
 <path d="M1160 1790 c0 -13 37 -50 50 -50 6 0 10 -5 10 -12 0 -14 107 -118 121 -118 5 0 9 -4 9 -10 0 -5 7 -10 15 -10 8 0 15 6 15 14 0 17 -129 136 -147 136 -7 0 -13 6 -13 13 0 16 -32 47 -48 47 -7 0 -12 -4 -12 -10z"/>
 <path d="M3382 1718 c-67 -138 -97 -209 -130 -303 -39 -114 -76 -295 -64 -307 15 -15 46 -5 50 16 3 14 0 17 -12 13 -17 -7 -23 8 -7 17 5 3 11 23 14 43 11 75 24 128 35 150 7 12 12 30 12 40 0 10 9 36 21 57 11 21 18 40 15 43 -3 3 4 22 15 41 10 20 19 42 19 48 0 11 24 66 40 94 64 107 72 130 46 130 -8 0 -32 -37 -54 -82z"/>
 <path d="M2702 1758 c-7 -7 -12 -20 -12 -29 0 -10 -6 -30 -14 -46 -8 -15 -20 -41 -26 -58 -21 -51 -28 -64 -93 -175 -24 -41 -48 -86 -52 -100 -4 -14 -18 -38 -30 -55 -12 -16 -30 -46 -40 -65 -78 -152 -105 -206 -105 -215 0 -6 -9 -28 -20 -50 -11 -22 -20 -49 -20 -60 0 -12 -5 -26 -11 -32 -12 -12 -35 -204 -26 -227 4 -9 13 -16 20 -16 10 0 16 22 20 88 3 48 18 127 32 177 25 87 108 268 178 390 135 235 237 440 237 476 0 13 -24 11 -38 -3z"/>
 <path d="M3895 1708 c-99 -110 -112 -124 -168 -175 -31 -29 -57 -57 -57 -62 0 -31 30 -16 92 45 72 71 208 227 208 238 0 20 -33 -1 -75 -46z"/>
 <path d="M1349 1528 c-19 -24 -36 -45 -39 -48 -12 -11 -30 -51 -30 -65 0 -36 36 -4 88 81 52 82 38 105 -19 32z"/>
 <path d="M1505 1530 c-29 -46 -30 -50 -11 -50 15 0 66 62 66 79 0 25 -32 8 -55 -29z"/>
 <path d="M1438 1413 c-14 -27 -39 -70 -57 -98 -44 -68 -165 -316 -190 -390 -26 -81 -59 -196 -60 -215 0 -8 -3 -36 -7 -62 -8 -61 2 -118 22 -118 13 0 15 15 14 88 -1 48 0 92 1 97 1 6 3 15 4 20 1 6 9 28 19 50 9 22 23 66 31 98 7 32 17 64 22 70 5 7 19 39 32 72 12 33 27 69 33 80 6 11 31 58 56 105 24 47 49 91 55 99 23 27 77 127 77 141 0 27 -31 5 -52 -37z"/>
 <path d="M3570 1390 c-33 -30 -42 -42 -33 -51 9 -9 23 -2 57 27 45 37 59 64 34 64 -7 -1 -33 -19 -58 -40z"/>
 <path d="M1242 1374 c-12 -8 -22 -22 -22 -30 0 -8 -4 -14 -10 -14 -5 0 -10 -5 -10 -11 0 -6 -20 -30 -45 -53 -45 -43 -56 -66 -32 -66 20 0 33 12 96 90 72 88 83 126 23 84z"/>
 <path d="M3488 1331 c-1 -6 -52 -45 -112 -88 -104 -74 -133 -103 -105 -103 27 0 259 167 259 186 0 16 -36 19 -42 5z"/>
 <path d="M974 1269 c-7 -12 -7 -13 62 -62 57 -41 64 -43 64 -24 0 15 -41 55 -82 80 -32 20 -35 20 -44 6z"/>
 <path d="M2254 575 c-7 -18 10 -162 27 -225 7 -25 22 -65 33 -90 11 -25 19 -53 18 -63 -2 -10 8 -27 22 -38 13 -10 27 -33 31 -49 7 -33 22 -47 36 -33 6 6 -8 46 -37 107 -58 124 -83 209 -91 319 -4 64 -10 87 -20 87 -7 0 -16 -7 -19 -15z"/>
 <path d="M1581 518 c3 -66 68 -238 89 -238 14 0 14 1 -20 103 -16 51 -32 104 -35 120 -5 26 -36 39 -34 15z"/>
 <path d="M1136 473 c7 -39 50 -208 83 -323 12 -43 24 -66 35 -68 11 -3 16 4 16 20 0 13 -4 28 -9 33 -4 6 -14 33 -20 60 -7 28 -19 73 -26 100 -8 28 -23 86 -32 130 -14 61 -22 81 -36 83 -16 3 -17 -1 -11 -35z"/>
 <path d="M1680 240 c0 -19 40 -90 50 -90 15 0 12 25 -7 65 -15 32 -43 48 -43 25z"/>
 <path d="M1730 125 c0 -11 35 -45 47 -45 16 0 16 5 3 31 -9 16 -50 28 -50 14z"/>
 </g>
<g id="layer3" fill="#b3322d" stroke="none">
 <path d="M1698 5116 c-37 -13 -84 -27 -105 -31 -21 -4 -42 -10 -48 -15 -5 -4 -46 -19 -90 -33 -44 -14 -98 -35 -120 -47 -21 -11 -49 -20 -61 -20 -11 0 -29 -9 -39 -20 -10 -11 -22 -20 -28 -20 -5 0 -22 -11 -39 -25 -16 -14 -38 -25 -48 -25 -9 0 -23 -7 -30 -16 -8 -8 -30 -23 -49 -33 -61 -31 -85 -46 -115 -71 -15 -14 -45 -40 -66 -57 -20 -18 -42 -33 -48 -33 -6 0 -15 -7 -20 -16 -5 -8 -19 -21 -32 -27 -13 -7 -27 -23 -30 -37 -4 -16 -12 -24 -23 -22 -11 2 -21 -7 -26 -21 -5 -14 -23 -34 -40 -47 -17 -12 -31 -28 -31 -36 0 -8 -7 -17 -15 -20 -8 -4 -15 -12 -15 -20 0 -8 -9 -19 -21 -26 -11 -7 -31 -36 -45 -64 -13 -28 -33 -59 -44 -69 -11 -10 -20 -23 -20 -29 0 -6 -14 -25 -30 -43 -17 -18 -30 -39 -30 -47 0 -9 -15 -39 -33 -68 -18 -29 -39 -69 -47 -88 -7 -19 -24 -59 -37 -88 -12 -29 -23 -59 -23 -67 0 -8 -11 -39 -24 -69 -13 -29 -27 -69 -31 -87 -4 -19 -11 -39 -15 -44 -5 -6 -14 -33 -21 -60 -7 -28 -18 -54 -25 -58 -9 -5 -11 -18 -8 -37 4 -18 0 -37 -10 -51 -11 -17 -16 -46 -16 -104 0 -50 -5 -86 -12 -93 -9 -9 -9 -15 0 -24 7 -7 12 -21 12 -33 0 -12 -5 -26 -12 -33 -9 -9 -9 -15 0 -24 15 -15 16 -74 2 -83 -13 -8 -13 -58 1 -72 7 -7 9 -63 7 -162 -2 -98 1 -151 7 -151 6 0 19 -46 29 -102 10 -57 25 -119 33 -138 9 -19 15 -45 14 -57 0 -13 3 -23 8 -23 5 0 15 -17 21 -37 14 -46 17 -53 71 -168 24 -49 42 -95 41 -101 -1 -6 7 -19 18 -29 11 -10 20 -26 20 -37 0 -10 5 -18 11 -18 5 0 17 -15 25 -32 26 -57 111 -172 177 -240 20 -21 37 -46 37 -55 0 -15 44 -63 58 -63 9 0 149 -148 156 -165 3 -8 14 -15 24 -15 21 0 52 -29 52 -49 0 -7 8 -11 18 -9 11 2 21 -6 29 -24 7 -16 19 -28 28 -28 20 0 61 -25 102 -63 30 -28 55 -30 52 -4 -3 25 1 37 13 37 16 0 74 65 90 101 7 16 17 29 21 29 14 0 37 28 37 44 0 9 8 24 18 34 9 10 24 30 32 44 8 15 28 42 44 62 23 30 26 39 16 51 -7 8 -17 15 -22 15 -5 0 -15 6 -23 13 -7 6 -38 32 -69 56 -31 24 -56 52 -56 61 0 9 -11 22 -24 30 -13 7 -27 21 -29 31 -3 11 -12 19 -21 19 -9 0 -16 6 -16 14 0 8 -15 23 -33 35 -18 11 -50 41 -72 67 -22 26 -52 60 -67 75 -16 15 -28 35 -28 44 0 9 -8 19 -19 22 -10 2 -25 17 -32 31 -7 15 -24 38 -36 51 -13 13 -20 28 -17 33 3 5 -5 19 -19 32 -33 31 -91 138 -117 216 -11 36 -28 80 -37 99 -8 19 -17 52 -20 75 -3 23 -7 48 -10 56 -14 38 -18 114 -18 365 0 227 3 282 18 345 10 41 23 98 29 125 12 54 66 204 80 220 4 5 8 17 8 27 0 10 11 25 24 33 14 10 28 33 35 59 17 68 143 253 182 268 11 4 19 15 19 25 0 10 16 31 35 47 19 16 35 35 35 43 0 7 9 13 20 13 11 0 20 7 20 15 0 8 9 15 20 15 11 0 24 8 27 18 9 22 29 42 43 42 6 0 15 11 20 25 6 17 20 27 40 31 16 4 30 10 30 15 0 13 32 41 71 63 19 11 47 30 62 43 16 13 33 20 39 17 5 -3 19 3 31 13 30 26 111 67 183 92 32 11 84 28 114 39 96 34 202 55 297 58 51 1 97 5 102 9 23 14 399 -36 426 -56 6 -5 20 -7 31 -7 17 2 112 -31 156 -53 10 -5 23 -9 29 -9 24 0 186 -86 227 -120 7 -6 16 -9 20 -6 5 3 25 -6 45 -19 20 -14 40 -25 46 -25 5 0 15 -13 23 -30 7 -17 21 -30 31 -30 10 0 20 -7 23 -15 4 -8 13 -15 21 -15 17 0 36 -18 46 -42 3 -10 14 -18 23 -18 21 0 102 -86 119 -127 8 -18 20 -33 27 -33 7 0 24 -14 38 -31 14 -17 35 -43 48 -57 12 -14 22 -31 22 -38 0 -7 9 -18 20 -24 12 -6 20 -21 20 -36 0 -13 7 -27 15 -30 15 -6 75 -117 75 -140 0 -6 6 -14 14 -17 8 -3 17 -20 21 -38 4 -18 14 -39 21 -47 8 -7 14 -21 14 -31 0 -9 4 -21 9 -26 19 -20 73 -213 89 -319 25 -165 22 -457 -6 -596 -11 -58 -30 -126 -41 -150 -11 -25 -21 -57 -21 -72 0 -15 -5 -30 -10 -33 -6 -3 -19 -26 -30 -50 -11 -23 -37 -69 -58 -101 -21 -33 -51 -84 -66 -114 -15 -30 -32 -59 -39 -65 -7 -5 -20 -26 -29 -45 -32 -62 -58 -104 -83 -134 -14 -15 -25 -37 -25 -48 0 -11 -13 -33 -30 -48 -16 -15 -30 -35 -30 -43 0 -21 -49 -117 -59 -117 -5 0 -12 -16 -15 -35 -4 -19 -11 -35 -16 -35 -6 0 -10 -10 -10 -22 0 -13 -7 -36 -15 -52 -8 -15 -15 -34 -15 -42 0 -7 -10 -32 -21 -54 -20 -38 -55 -164 -66 -240 -3 -19 -10 -40 -15 -47 -15 -18 0 -33 32 -33 19 0 33 7 40 19 5 11 27 30 47 42 21 13 74 51 118 85 44 33 86 59 93 56 7 -2 16 5 19 17 3 11 14 23 24 26 11 4 24 15 29 26 6 10 18 19 28 19 23 1 62 34 62 53 0 9 34 46 76 84 41 37 98 96 125 131 28 35 58 66 67 70 21 8 51 43 52 60 0 15 22 52 62 103 15 20 37 54 50 77 13 22 49 87 81 143 31 56 57 110 57 120 0 10 4 21 10 24 6 3 10 13 10 20 0 8 11 38 24 67 25 55 86 244 86 266 0 8 5 23 12 35 34 61 38 93 38 360 0 147 -4 275 -9 285 -15 28 -41 119 -41 144 0 13 -4 28 -9 33 -11 11 -41 114 -48 165 -3 19 -10 41 -17 49 -10 13 -85 188 -109 259 -7 17 -15 32 -19 32 -4 0 -14 16 -22 35 -8 19 -20 35 -25 35 -6 0 -8 7 -5 15 4 8 -7 27 -24 45 -17 17 -44 54 -61 83 -17 28 -44 68 -61 87 -64 75 -70 82 -70 96 0 8 -7 17 -16 21 -19 7 -182 170 -207 207 -10 14 -27 26 -37 26 -11 0 -20 5 -20 10 0 6 -12 15 -26 20 -14 6 -28 19 -31 30 -3 11 -11 20 -18 20 -17 0 -75 33 -75 43 0 4 -6 7 -13 7 -7 0 -18 9 -25 20 -7 11 -18 20 -26 20 -7 0 -26 10 -41 22 -40 31 -83 54 -274 145 -51 24 -95 42 -98 39 -3 -2 -41 11 -85 30 -44 19 -90 34 -103 34 -13 0 -27 5 -30 11 -4 5 -12 8 -18 6 -7 -2 -42 7 -79 20 -67 23 -72 23 -500 22 -426 0 -434 -1 -500 -23z"/>
 <path d="M1248 3928 c-41 -55 -140 -266 -145 -311 -3 -23 -9 -46 -13 -52 -19 -26 26 -345 51 -360 5 -4 9 -12 9 -19 0 -12 67 -159 89 -196 5 -8 26 -44 47 -80 20 -36 50 -81 66 -101 15 -20 28 -44 28 -52 0 -8 14 -29 30 -47 17 -18 30 -38 30 -44 0 -7 11 -23 25 -36 14 -13 25 -27 25 -32 0 -5 12 -27 27 -51 38 -59 63 -105 63 -117 0 -6 16 -33 35 -60 19 -27 35 -54 35 -60 0 -6 4 -18 9 -28 25 -44 53 -156 48 -188 -3 -19 -1 -36 5 -40 13 -8 4 -118 -13 -160 -6 -16 -15 -38 -19 -49 -4 -11 -17 -41 -29 -68 -11 -26 -21 -54 -21 -63 0 -8 -11 -27 -25 -42 -14 -15 -25 -32 -25 -39 0 -7 -8 -20 -19 -30 -10 -10 -21 -30 -25 -45 -3 -14 -19 -40 -36 -56 -16 -17 -30 -39 -30 -50 0 -27 -32 -82 -47 -82 -7 0 -13 -10 -13 -22 0 -12 -6 -29 -14 -37 -8 -9 -34 -54 -58 -101 -25 -47 -50 -94 -56 -105 -6 -11 -21 -47 -33 -80 -13 -33 -29 -69 -36 -80 -7 -11 -13 -27 -13 -37 0 -10 -13 -57 -29 -105 -23 -70 -30 -109 -32 -189 -1 -55 0 -105 4 -111 4 -7 17 -55 28 -109 11 -53 24 -105 30 -115 5 -10 9 -29 9 -43 0 -14 5 -28 10 -31 6 -3 10 -17 10 -31 0 -13 5 -34 12 -47 6 -12 14 -29 18 -37 6 -13 45 -15 245 -18 162 -2 242 1 251 9 17 14 7 69 -16 89 -23 19 -40 53 -40 78 0 11 -7 25 -15 32 -8 7 -15 21 -15 30 0 10 -3 20 -7 22 -28 12 -68 158 -57 203 3 13 1 26 -5 29 -19 12 -14 64 21 221 6 28 12 59 14 71 1 11 6 29 11 40 6 10 19 39 31 64 81 177 152 308 175 325 9 7 17 21 17 32 0 11 7 26 15 33 8 7 24 31 35 54 12 22 27 52 36 66 48 80 88 153 115 210 48 99 58 123 65 153 3 15 10 30 15 33 5 3 9 15 9 28 0 12 7 31 15 42 16 21 20 70 6 78 -4 3 -11 29 -15 57 -4 28 -11 58 -16 67 -5 10 -21 52 -35 95 -15 42 -33 89 -41 105 -7 15 -14 34 -14 43 0 9 -7 19 -15 22 -8 4 -26 28 -40 54 -28 54 -41 76 -67 115 -10 15 -18 35 -18 44 0 9 -10 27 -22 39 -31 31 -63 78 -60 88 1 5 -8 21 -21 36 -13 16 -30 44 -37 62 -7 19 -26 52 -40 74 -35 52 -73 136 -94 205 -9 30 -22 71 -28 89 -6 19 -11 61 -12 92 0 32 -4 61 -8 65 -12 11 -9 102 2 109 6 4 8 14 5 24 -11 36 22 197 72 344 15 45 22 82 17 87 -5 5 -67 12 -139 15 -71 3 -164 8 -206 11 l-76 5 -25 -33z"/>
 <path d="M2854 3939 c-3 -5 -76 -9 -163 -9 -177 0 -221 -11 -221 -55 0 -13 -6 -30 -13 -37 -8 -7 -17 -30 -21 -50 -3 -20 -13 -39 -21 -42 -8 -3 -15 -14 -15 -25 0 -11 -6 -32 -14 -48 -22 -44 -35 -93 -41 -158 -4 -33 -11 -70 -17 -82 -8 -15 -8 -26 -1 -35 6 -7 14 -30 17 -52 4 -21 11 -46 16 -55 5 -9 16 -40 25 -68 9 -29 21 -55 26 -58 5 -3 26 -41 47 -83 34 -68 51 -98 99 -177 73 -120 93 -155 93 -163 0 -5 9 -17 20 -27 11 -10 17 -22 14 -27 -3 -5 10 -25 30 -45 27 -27 34 -42 30 -59 -4 -16 0 -25 15 -34 28 -14 86 -139 100 -215 40 -213 27 -585 -24 -685 -26 -50 -75 -160 -75 -167 0 -3 -7 -14 -15 -23 -15 -17 -25 -34 -129 -235 -31 -60 -63 -117 -71 -125 -8 -9 -15 -24 -15 -33 0 -9 -4 -17 -8 -17 -5 0 -14 -22 -21 -50 -7 -27 -17 -52 -22 -56 -5 -3 -9 -15 -9 -27 0 -13 -6 -31 -13 -42 -7 -11 -19 -45 -26 -75 -8 -30 -18 -60 -23 -66 -5 -7 -11 -56 -14 -110 l-6 -99 42 -100 c23 -55 45 -113 47 -128 3 -16 12 -31 20 -34 14 -5 53 -73 53 -92 0 -5 20 -30 45 -55 l44 -46 216 0 215 0 0 24 c0 13 -7 29 -15 36 -8 7 -15 17 -15 22 0 5 -13 29 -29 52 -17 24 -42 70 -56 102 -15 32 -34 77 -44 99 -33 73 -46 186 -31 268 16 93 56 227 87 297 14 30 28 64 33 75 12 31 72 158 81 175 5 8 14 26 20 40 6 14 37 79 69 145 58 119 170 401 170 427 0 8 4 18 9 24 28 28 55 341 34 380 -13 23 -26 94 -25 137 1 16 -4 27 -12 27 -14 0 -26 30 -26 66 0 12 -7 24 -15 28 -8 3 -15 14 -15 24 0 11 -7 25 -15 32 -8 7 -15 21 -15 31 0 10 -12 40 -27 66 -15 26 -32 57 -37 68 -6 11 -19 32 -29 48 -45 71 -51 83 -52 93 0 6 -8 18 -17 28 -10 10 -18 22 -18 28 0 5 -11 24 -25 40 -14 16 -23 34 -20 39 8 13 -13 49 -29 49 -8 0 -16 8 -20 18 -6 20 -57 110 -80 143 -9 13 -16 33 -16 44 0 11 -9 26 -20 33 -11 7 -20 21 -20 31 0 10 -7 32 -15 47 -19 36 -19 216 1 254 7 14 22 52 35 85 26 72 57 136 73 150 16 14 37 78 28 86 -11 11 -112 17 -118 8z"/>
 <path d="M1899 3923 c-21 -24 -79 -146 -79 -166 0 -9 -5 -19 -10 -22 -12 -7 -50 -88 -50 -107 0 -7 -8 -33 -17 -58 -20 -55 -23 -254 -5 -272 7 -7 12 -20 12 -30 0 -10 15 -51 34 -91 66 -141 76 -162 85 -177 28 -50 51 -100 51 -113 0 -8 11 -22 25 -31 14 -9 25 -26 25 -39 0 -12 9 -28 19 -34 11 -7 22 -26 26 -43 4 -17 13 -34 21 -37 16 -6 174 -281 174 -303 0 -5 14 -39 31 -76 43 -92 69 -193 76 -291 7 -93 -1 -120 -78 -289 -11 -22 -19 -47 -19 -55 0 -8 -9 -25 -20 -39 -11 -14 -20 -28 -20 -32 0 -9 -46 -115 -65 -150 -8 -14 -15 -36 -15 -47 0 -12 -4 -21 -10 -21 -5 0 -21 -21 -33 -47 -13 -27 -38 -75 -54 -108 -17 -33 -39 -79 -49 -102 -11 -24 -22 -43 -26 -43 -5 0 -8 -7 -8 -16 0 -16 -33 -97 -50 -124 -6 -8 -13 -22 -16 -30 -3 -8 -26 -65 -50 -126 -58 -147 -77 -211 -69 -243 5 -23 45 -111 106 -234 11 -21 19 -42 19 -47 0 -5 20 -41 45 -80 25 -39 45 -75 45 -80 0 -5 8 -19 17 -30 16 -19 29 -20 226 -20 167 0 209 3 213 14 5 13 -13 62 -35 96 -21 32 -61 128 -61 146 0 11 -4 24 -10 30 -5 5 -14 53 -21 108 -9 78 -9 103 1 122 11 20 11 28 0 49 -11 20 -11 44 -2 126 6 56 16 107 21 112 6 6 11 20 11 32 0 11 9 38 20 60 11 21 18 40 16 43 -3 2 7 25 21 50 15 26 29 54 33 62 7 16 29 59 68 134 14 26 32 50 39 53 7 3 13 18 13 33 0 16 4 31 9 34 12 8 116 186 127 219 4 9 10 17 15 17 5 0 9 10 9 22 0 27 29 108 46 128 24 29 48 190 47 320 0 102 -4 134 -21 176 -11 27 -23 71 -27 97 -4 26 -11 47 -17 47 -5 0 -16 17 -24 38 -32 79 -118 234 -139 252 -8 7 -15 20 -15 30 0 9 -22 47 -50 83 -27 36 -50 75 -50 87 0 11 -7 23 -15 26 -8 4 -15 10 -15 15 0 5 -13 28 -30 51 -16 22 -30 54 -30 69 0 17 -7 32 -18 38 -17 9 -25 25 -67 126 -70 168 -73 258 -16 430 22 65 44 121 49 124 5 3 13 22 17 41 4 19 14 45 22 58 25 40 5 49 -125 56 -64 3 -155 9 -202 12 -75 5 -87 3 -101 -13z"/>
 </g>

</svg>